<?xml version="1.0" encoding="UTF-8"?>
<svg id="Layer_2" data-name="Layer 2" xmlns="http://www.w3.org/2000/svg" viewBox="0 0 783.19323 846.17423">
  <defs>
    <style>
      .cls-1 {
        fill: #fed0a4;
      }

      .cls-2 {
        fill: #fd6794;
      }

      .cls-3 {
        fill: #feaf8c;
      }

      .cls-4 {
        fill: #b7eee7;
      }

      .cls-5 {
        fill: #70d2cc;
      }
    </style>
  </defs>
  <g id="Layer_1-2" data-name="Layer 1">
    <g>
      <path class="cls-2" d="M130.11738.66696c-8.54786.73059-19.87194,3.14152-27.5431,5.84469-7.15974,2.48399-18.48383,7.81727-18.48383,8.69397,0,.29223,2.19176.58447,4.96799.65753,19.87194.51141,44.05434,4.74881,63.26875,11.17797,13.44278,4.45658,13.51584,4.45658,5.84469,5.99081-3.50681.65753-8.40174,1.89952-10.81267,2.70317-5.04104,1.68035-19.79888,8.54786-19.36053,8.98621.14612.14612,5.26022.8767,11.25103,1.53423,19.0683,2.1187,43.76211,7.2328,54.79396,11.39714l4.31046,1.60729-5.91775,1.97258c-6.42916,2.1187-11.90855,4.82187-16.73042,8.03645-5.62551,3.87211-5.4794,4.09128,2.70317,4.67575,15.85372,1.02282,31.99967,4.31046,44.20046,8.98621l7.2328,2.70317-5.33328.94976c-5.91775.94976-8.98621,1.82647-14.24643,4.09128l-3.57987,1.46117,7.5981,3.06846c29.66179,11.98161,50.84879,29.80791,70.28238,59.03136,4.74881,7.15974,15.7076,26.95863,13.80808,24.98604-.36529-.43835-2.63011-3.21458-5.04104-6.20998-6.42916-8.18256-21.62535-23.52487-29.88097-30.31932-33.09555-27.1778-69.84403-40.7667-109.9532-40.69364-34.99507,0-66.26416,10.30126-94.2456,31.12297-13.44278,10.00903-29.15038,27.25086-37.99048,41.71647C9.86291,193.39557,1.31505,217.79714.36529,234.01615l-.36529,6.57527,2.04564-2.55705c1.09588-1.38811,4.67575-5.84469,7.89033-9.86291,10.73962-13.44278,29.73485-31.12297,47.92645-44.71187,9.05927-6.79445,26.95863-18.41077,26.95863-17.53407,0,.21918-1.16894,2.19176-2.55705,4.52963-3.50681,5.91775-6.79445,14.10031-8.84009,22.13676q-3.21458,12.56608,8.69397.65753c17.53407-17.68018,33.5339-28.78509,51.14103-35.6526,3.21458-1.16894,6.06386-2.1187,6.3561-1.97258.36529.14612-.8767,2.19176-2.63011,4.60269-4.45658,5.84469-9.42456,16.21901-11.25103,23.3057-.80364,3.21458-1.31505,5.91775-1.242,6.06386.14612.14612,3.87211-2.33788,8.25562-5.4794,14.39255-10.22821,25.93581-17.09571,35.72566-21.187,9.05927-3.79905,8.84009-3.94516,5.40634,2.41093-2.55705,4.67575-6.72139,15.7076-6.20998,16.21901.07306.07306,5.84469-1.82647,12.78526-4.16434,15.41537-5.33328,27.98145-8.62092,37.91742-9.78985l7.52504-.94976-4.74881,4.74881c-2.70317,2.55705-4.82187,4.89493-4.82187,5.18716s5.33328.51141,11.90855.51141c14.4656.07306,26.73945,1.97258,39.45165,6.20998,9.42456,3.14152,27.61615,11.98161,23.15958,11.25103-39.59777-6.50222-69.1865-4.67575-101.8437,6.28304-45.58857,15.26925-82.04482,45.15022-103.30487,84.67493-11.61632,21.62535-18.33771,47.85339-18.41077,71.96273,0,19.79888,5.33328,47.04974,12.49302,62.8304l1.60729,3.65293,1.02282-8.76703c2.70317-24.10934,10.73962-55.52454,19.21441-75.17731l1.31505-2.9954.43835,3.65293c.8767,6.79445,2.63011,15.7076,3.79905,19.21441,1.68035,5.04104,4.82187,11.83549,5.40634,11.83549.29223,0,.73059-1.89952,1.02282-4.2374,1.38811-12.20079,7.30586-35.50648,12.49302-49.09538,2.19176-5.69857,7.37892-16.80348,7.89033-16.80348.07306,0,.29223,2.70317.36529,5.99081.29223,10.95879,2.48399,20.67559,6.86751,30.5385l1.75341,4.01822,1.68035-5.4794c6.42916-21.84452,16.65736-44.71187,26.59333-59.68888l5.26022-7.89033.43835,10.22821c.29223,5.62551.8767,11.54326,1.38811,13.15055,1.38811,4.67575,4.52963,12.05467,5.04104,12.05467.21918,0,1.68035-3.3607,3.28764-7.52504,6.13692-16.21901,17.16877-36.8946,24.47463-45.80775l1.53423-1.82647v6.94057c0,6.50222,1.31505,14.75784,2.55705,15.92678.29223.29223.8767-.07306,1.38811-.8767,3.50681-5.77163,12.3469-16.65736,18.33771-22.57511,12.27385-12.20079,26.52027-22.0637,41.49729-28.71203,7.2328-3.21458,18.703-7.15974,19.28747-6.64833.14612.14612-2.41093,3.87211-5.69857,8.25562-4.89493,6.50222-10.08209,14.10031-16.36513,23.74405-.36529.65753-2.55705,3.87211-4.82187,7.30586-5.33328,7.81727-17.38795,28.93121-17.97242,31.34214-.21918.94976-1.02282,2.41093-1.75341,3.14152-2.77623,2.9954-19.57971,41.57035-19.87194,45.58857l-.14612,2.04564,7.67115.43835c7.74421.51141,15.19619,2.33788,20.67559,5.18716,1.60729.80364,3.21458,1.242,3.72599,1.09588.43835-.21918,1.46117-2.92234,2.19176-6.06386,1.38811-5.69857,9.13233-32.51108,10.52044-36.16401.43835-1.02282.51141-2.19176.29223-2.55705-.80364-1.09588-7.37892-5.1141-11.83549-7.2328-5.40634-2.48399-1.60729-1.82647,6.3561,1.16894,3.28764,1.31505,6.42916,2.1187,6.94057,1.89952.51141-.14612,2.04564-3.43375,3.43375-7.15974,1.38811-3.79905,4.60269-11.68938,7.15974-17.53407,2.55705-5.91775,4.60269-11.32408,4.60269-12.12773,0-1.38811-.8767-2.1187-6.94057-5.4794-4.60269-2.55705-3.14152-2.63011,2.9954-.14612,2.63011,1.02282,5.18716,1.68035,5.69857,1.53423.58447-.21918,4.38352-7.01363,8.54786-15.05007l7.45198-14.68478h6.28304l1.46117,4.60269c.80364,2.55705,2.1187,8.91315,2.9954,14.10031,2.19176,12.85831,1.75341,32.87637-.94976,45.3694-.94976,4.52963-1.60729,8.25562-1.46117,8.25562s1.75341-.94976,3.43375-2.1187c3.72599-2.55705,10.00903-9.3515,13.07749-13.95419l2.1187-3.28764-.36529,6.20998c-.80364,11.83549-4.16434,24.10934-10.73962,38.86718-2.9954,6.79445-3.28764,7.89033-2.19176,7.89033,2.26482,0,12.7122-5.77163,17.24183-9.49762,2.33788-1.97258,4.38352-3.43375,4.52963-3.3607.36529.43835-2.77623,13.95419-4.60269,19.57971-2.33788,7.2328-7.89033,20.16418-11.03185,25.86275-1.38811,2.41093-2.48399,4.82187-2.48399,5.26022,0,.51141,1.38811.29223,3.87211-.51141,5.4794-1.89952,9.20538-3.94516,13.51584-7.37892,2.1187-1.60729,3.79905-2.55705,3.79905-2.1187s-.8767,4.67575-1.89952,9.3515c-3.3607,15.19619-9.64374,32.6572-15.7076,43.61599-1.53423,2.84929-2.84929,5.40634-2.84929,5.62551,0,.94976,7.2328-2.70317,13.15055-6.64833,17.24183-11.54326,34.04531-34.4106,41.20505-55.96289,4.16434-12.49302,5.1141-19.28747,5.1141-35.50648,0-12.7122-.21918-16.07289-1.60729-22.50205-3.21458-14.8309-8.76703-29.00427-16.29207-41.42423-8.32868-13.88114-22.35593-29.66179-33.46084-37.91742-2.55705-1.82647-4.31046-3.3607-3.87211-3.3607,1.38811,0,14.24643,5.99081,20.52947,9.64374,9.49762,5.40634,15.56148,10.15515,25.0591,19.72582,7.2328,7.30586,8.62092,8.32868,8.98621,7.15974.29223-.80364.21918-2.1187,0-2.9954-.43835-1.31505-.36529-1.38811,1.02282-.51141,3.28764,2.04564,16.87654,18.41077,19.72582,23.74405.43835.94976,1.09588,1.68035,1.46117,1.68035,1.02282,0,2.55705-8.84009,2.63011-14.8309v-5.69857l2.04564,2.41093c6.20998,7.45198,14.31949,21.84452,19.57971,34.7759l2.41093,6.06386,1.31505-2.63011c1.82647-3.50681,3.57987-10.66656,4.16434-16.80348l.43835-5.1141,2.77623,4.38352c5.55245,8.69397,14.90396,30.5385,16.29207,38.06353.21918,1.38811.73059,2.48399,1.02282,2.48399,1.09588,0,5.26022-11.10491,5.62551-15.05007.21918-2.1187.73059-3.72599,1.09588-3.50681,1.09588.73059,7.5981,10.73962,12.20079,19.0683,4.45658,7.96339,11.03185,22.72123,11.03185,24.76687,0,.58447.29223,1.02282.58447,1.02282.94976,0,2.33788-8.54786,2.77623-17.31489.80364-13.22361-1.38811-28.78509-5.91775-42.30093-14.90396-44.85799-55.45148-77.73436-104.61993-84.74799-9.86291-1.38811-29.51568-1.60729-38.57494-.43835-3.21458.43835-7.30586,1.02282-9.13233,1.242-4.38352.58447-2.92234-.21918,6.20998-3.65293,35.57954-13.29667,69.55179-13.00443,109.9532,1.02282,4.60269,1.53423,8.54786,2.77623,8.69397,2.63011.51141-.58447-2.26482-12.3469-4.2374-17.89936-2.48399-6.94057-2.41093-7.01363,6.06386-3.06846,10.81267,5.1141,25.78969,14.8309,41.64341,26.95863,2.70317,2.1187,5.18716,3.87211,5.4794,3.87211s.29223-2.55705-.07306-5.69857c-.65753-6.20998-3.43375-15.92678-6.13692-21.62535-.94976-1.97258-1.75341-3.72599-1.75341-3.87211,0-.65753,4.67575,2.26482,10.30126,6.42916,11.98161,8.91315,23.08652,20.09112,35.79872,36.23707,2.92234,3.72599,5.40634,6.64833,5.62551,6.50222.14612-.21918.29223-3.43375.29223-7.2328,0-6.79445-1.53423-16.29207-3.50681-21.77147-.51141-1.60729-.80364-2.84929-.58447-2.84929.58447,0,8.40174,6.06386,16.36513,12.63914,13.15055,10.81267,35.14119,33.60696,45.66163,47.04974,1.89952,2.55705,3.65293,4.60269,3.87211,4.60269.80364,0-.73059-13.36973-2.48399-21.187-9.93597-44.34657-37.91742-79.70694-78.9033-99.79806-31.56132-15.41537-68.82121-19.57971-105.13134-11.68938-34.70284,7.52504-67.87145,26.15498-96.65654,54.28255-4.89493,4.82187-8.91315,8.54786-8.91315,8.40174,0-.65753,6.79445-12.85831,10.30126-18.55689,6.50222-10.5935,14.10031-19.945,24.32852-30.17321,11.98161-11.98161,21.91758-19.0683,37.91742-27.03168,5.4794-2.70317,9.93597-5.1141,9.78985-5.18716-.94976-.94976-11.03185-2.77623-17.31489-3.14152l-7.67115-.43835,8.76703-4.31046c20.01806-9.71679,37.33295-15.12313,62.46511-19.36053l12.05467-1.97258-3.50681-2.04564c-6.06386-3.57987-18.19159-8.62092-24.83993-10.30126-3.50681-.8767-6.50222-1.75341-6.72139-1.97258-.51141-.51141,16.21901-4.09128,25.20522-5.33328,10.88573-1.53423,34.11837-2.77623,42.95846-2.33788,4.09128.21918,7.45198.14612,7.45198-.14612,0-.51141-1.53423-1.53423-8.10951-5.26022-5.40634-3.06846-14.68478-6.94057-21.69841-9.05927-2.48399-.73059-4.38352-1.46117-4.2374-1.60729.58447-.58447,16.5843-4.60269,25.27828-6.3561,17.09571-3.43375,30.39238-4.82187,55.15925-5.99081l10.22821-.51141-10.81267-5.33328c-11.90855-5.84469-26.22804-10.81267-39.23247-13.66196-23.23264-5.1141-48.29174-4.89493-70.13626.58447-28.71203,7.30586-56.62042,25.35134-76.49236,49.60679-2.70317,3.28764-5.18716,6.20998-5.4794,6.64833-2.1187,2.33788,3.14152-16.80348,6.72139-24.76687,1.242-2.77623,2.1187-5.18716,1.89952-5.33328-.43835-.43835-10.5935,7.96339-14.4656,11.98161-15.26925,15.78066-28.56592,43.61599-35.21425,73.71614-2.92234,13.15055-5.4794,36.45625-5.55245,49.60679,0,4.82187-.29223,9.13233-.58447,9.64374s-.94976-2.48399-1.46117-6.57527c-1.09588-9.05927-5.33328-30.46544-7.81727-39.08636-14.97701-53.04055-45.22328-91.68855-89.20456-113.89837C193.53225,7.75364,175.04842,2.56648,152.76555.5939c-9.3515-.80364-13.51584-.80364-22.64817.07306ZM561.16317,274.92897c-11.98161,4.74881-22.57511,12.41996-31.19603,22.42899-20.16418,23.52487-30.02709,54.7209-30.24626,95.19537l-.07306,13.15055-1.38811-5.4794c-5.55245-21.69841-14.4656-38.648-26.95863-51.14103-10.37432-10.52044-23.15958-17.89936-37.25989-21.77147-6.20998-1.68035-8.32868-1.89952-20.09112-1.89952-8.84009-.07306-14.39255.21918-17.02266.94976l-3.87211.94976.21918,3.3607.21918,3.28764,6.57527,2.70317c6.86751,2.77623,18.703,8.54786,22.9404,11.10491l2.41093,1.53423-5.1141,1.31505c-4.96799,1.242-13.51584,5.04104-14.31949,6.42916-.21918.36529,2.26482,1.02282,5.62551,1.53423,10.44738,1.46117,21.55229,4.52963,31.04991,8.54786l4.67575,1.97258-4.89493,1.31505c-7.01363,1.97258-13.80808,5.69857-10.30126,5.69857,1.97258,0,15.19619,4.45658,20.67559,6.94057,7.37892,3.43375,16.87654,9.71679,22.72123,15.12313,5.40634,5.04104,14.10031,14.61172,13.66196,15.05007-.14612.14612-2.19176-1.02282-4.60269-2.63011-22.9404-15.63454-54.50172-21.69841-80.21835-15.56148-40.7667,9.86291-70.0632,45.22328-73.78919,88.98538-.51141,6.28304.21918,21.40617,1.02282,21.33311.29223,0,2.04564-3.21458,3.94516-7.08668,6.86751-14.24643,16.9496-27.5431,31.26908-41.27811,4.89493-4.67575,9.20538-8.54786,9.49762-8.54786s.21918,1.38811-.21918,3.06846c-.94976,3.87211-.94976,19.28747,0,21.62535.58447,1.53423,1.02282.8767,4.38352-5.84469,7.01363-14.02725,14.31949-23.96322,22.42899-30.24626,2.77623-2.19176,5.18716-3.87211,5.33328-3.72599.14612.21918-.07306,1.75341-.43835,3.50681-1.09588,5.18716-1.242,16.73042-.21918,16.73042.36529,0,2.19176-2.26482,4.09128-5.1141,4.31046-6.28304,14.90396-16.36513,20.38335-19.50665,2.33788-1.31505,4.16434-2.19176,4.16434-2.1187,0,.14612-.51141,1.53423-1.16894,3.06846-1.09588,2.55705-2.55705,9.78985-2.04564,9.78985.14612,0,2.55705-1.53423,5.40634-3.3607,10.95879-7.01363,20.38335-9.78985,33.60696-9.71679,12.20079,0,13.95419.43835,15.19619,3.65293l.94976,2.63011-14.10031,14.17337c-7.81727,7.81727-16.21901,16.65736-18.77606,19.65277-2.48399,2.9954-5.77163,6.79445-7.30586,8.40174-6.13692,6.42916-21.99064,27.5431-21.99064,29.22344,0,.43835,1.242,1.38811,2.77623,2.1187,1.46117.73059,5.91775,3.43375,9.86291,6.06386s7.30586,4.60269,7.45198,4.45658c.14612-.07306,2.92234-4.74881,6.13692-10.22821,3.28764-5.4794,7.5981-12.56608,9.57068-15.7076,2.04564-3.14152,3.65293-5.91775,3.65293-6.20998s-2.33788-2.48399-5.1141-4.96799c-2.84929-2.41093-4.89493-4.38352-4.60269-4.38352s2.70317,1.31505,5.40634,2.92234,5.40634,2.92234,5.91775,2.92234c.58447,0,2.84929-2.55705,4.96799-5.69857,2.19176-3.06846,5.99081-8.40174,8.54786-11.76244,2.55705-3.3607,4.60269-6.50222,4.60269-6.86751,0-.43835-.58447-1.38811-1.242-2.19176q-1.242-1.31505.80364-.43835c2.33788,1.09588,1.75341,1.60729,9.93597-8.32868,3.94516-4.74881,6.72139-6.50222,8.10951-5.1141,1.16894,1.16894,4.31046,14.97701,5.1141,22.50205.80364,7.81727.43835,15.26925-1.242,25.13216-.58447,3.3607-.8767,6.28304-.73059,6.50222.58447.58447,7.52504-4.89493,10.52044-8.32868,1.60729-1.75341,2.9954-3.21458,3.21458-3.21458.58447,0-.73059,9.86291-1.97258,14.4656-1.68035,6.64833-4.52963,14.39255-7.37892,20.01806-1.38811,2.70317-2.48399,5.26022-2.48399,5.62551,0,1.75341,11.76244-3.79905,16.73042-7.81727l3.21458-2.63011-.43835,3.3607c-1.09588,7.96339-8.4748,26.3011-14.53866,36.23707-.80364,1.31505-1.31505,2.55705-1.09588,2.77623,1.02282,1.09588,10.66656-2.84929,14.97701-6.06386,1.31505-1.02282,2.55705-1.68035,2.70317-1.53423.58447.58447-2.04564,11.54326-4.82187,20.01806-1.60729,4.89493-5.1141,13.36973-7.81727,18.84912s-4.60269,9.93597-4.16434,9.93597c1.46117,0,8.40174-3.57987,12.93137-6.64833,14.39255-9.64374,26.08192-24.03628,32.43802-39.74388,11.61632-28.85815,7.52504-61.00394-11.25103-89.20456-6.86751-10.22821-13.36973-16.80348-26.88557-27.10474-2.04564-1.60729-1.97258-1.60729,3.3607.21918,14.61172,5.04104,27.47004,13.15055,38.13659,23.96322,6.20998,6.28304,6.3561,6.3561,6.86751,4.52963.43835-1.89952.51141-1.89952,1.89952-.65753,2.33788,2.1187,10.5935,14.8309,12.85831,19.87194,1.16894,2.55705,2.26482,4.38352,2.48399,4.01822,1.02282-1.75341,2.33788-7.01363,3.14152-12.3469l.80364-5.84469,3.57987,5.4794c4.96799,7.67115,10.08209,18.703,13.44278,28.78509l2.77623,8.62092,2.41093-5.69857c1.31505-3.14152,2.92234-8.54786,3.65293-11.98161l1.242-6.20998,2.9954,5.99081c5.84469,11.4702,10.95879,27.1778,12.27385,37.25989.29223,2.1187.73059,3.87211.94976,3.87211.73059,0,4.16434-7.37892,5.77163-12.3469l1.31505-3.94516,2.63011,5.77163c4.01822,8.84009,8.32868,23.15958,9.78985,32.2919,1.53423,9.57068,1.75341,9.49762,5.40634-1.97258,8.32868-26.22804,4.31046-57.35101-10.44738-81.09505-11.32408-18.26465-28.63897-33.89919-48.07256-43.39681-8.40174-4.09128-21.77147-8.62092-31.70744-10.73962-13.22361-2.84929-34.99507-2.70317-50.04515.36529-3.21458.65753,10.30126-5.55245,16.9496-7.74421,11.61632-3.87211,19.57971-5.26022,31.4152-5.33328,5.99081-.07306,10.81267-.29223,10.81267-.58447,0-.21918-1.02282-1.31505-2.26482-2.41093-1.242-1.02282-2.19176-1.97258-2.04564-2.1187s2.92234.07306,6.13692.43835c6.94057.73059,18.55689,3.43375,26.00886,6.06386,2.92234,1.02282,5.55245,1.82647,5.84469,1.82647,1.68035,0-2.9954-9.27844-6.94057-13.73502l-2.1187-2.48399,2.84929.58447c8.32868,1.46117,21.77147,6.94057,34.19143,13.88114,3.94516,2.19176,7.30586,3.94516,7.37892,3.79905.73059-.65753-1.60729-8.25562-3.87211-13.00443-1.53423-2.9954-2.77623-5.69857-2.92234-6.06386-.51141-1.09588,1.60729-.43835,7.45198,2.26482,7.2328,3.43375,16.21901,9.49762,24.76687,16.80348,3.50681,2.9954,6.57527,5.33328,6.72139,5.18716.51141-.58447-1.16894-8.91315-2.48399-12.3469-.80364-2.04564-1.16894-3.65293-.8767-3.65293.36529,0,3.43375,1.75341,6.86751,3.94516,11.4702,7.15974,24.32852,18.55689,33.5339,29.58874,2.92234,3.43375,5.55245,6.57527,5.91775,7.01363s.43835-.80364.14612-2.92234c-2.70317-21.04088-12.85831-41.42423-28.05451-56.62042-16.29207-16.21901-35.87178-25.57051-60.7117-28.85815-30.17321-4.09128-62.90346,5.26022-90.59267,25.86275-7.5981,5.69857-21.91758,19.72582-27.10474,26.59333-2.33788,3.14152-4.31046,5.33328-4.31046,4.89493,0-1.53423,7.2328-16.87654,10.5935-22.42899,8.18256-13.51584,20.45641-26.15498,32.07273-33.16861,2.19176-1.38811,4.09128-2.70317,4.09128-2.92234,0-.73059-4.16434-1.38811-8.4748-1.38811-2.19176,0-3.94516-.21918-3.94516-.58447,0-.80364,11.25103-6.94057,17.46101-9.57068,6.3561-2.70317,18.19159-6.20998,25.13216-7.45198,2.70317-.51141,4.89493-1.16894,4.89493-1.46117,0-1.02282-9.64374-5.33328-15.56148-6.86751l-5.99081-1.60729,4.2374-1.53423c10.88573-4.09128,24.10934-6.57527,38.72106-7.2328,5.4794-.21918,10.00903-.65753,10.00903-.8767,0-.8767-10.08209-6.64833-14.53866-8.32868l-4.60269-1.75341,2.77623-1.09588c12.3469-4.89493,36.09095-9.20538,51.72549-9.42456,9.71679-.14612,9.71679-.58447,0-5.18716-9.27844-4.38352-16.65736-6.94057-26.59333-9.05927-4.89493-1.09588-9.27844-1.38811-20.45641-1.38811-13.22361,0-14.8309.14612-21.99064,2.04564-12.27385,3.14152-23.45181,8.18256-32.87637,14.75784-2.55705,1.75341-4.74881,3.14152-4.82187,2.9954-.94976-.8767,6.28304-13.36973,10.81267-18.84912,1.68035-1.97258,2.92234-3.65293,2.77623-3.79905s-2.1187.51141-4.31046,1.38811ZM229.11179,337.39408c-2.48399.94976-2.9954,2.04564-6.79445,14.10031-5.40634,16.87654-10.88573,39.0133-9.86291,40.03612.58447.58447,2.55705.58447,6.86751.07306,8.91315-1.09588,18.99524.14612,28.56592,3.43375,3.14152,1.09588,4.31046,1.242,4.82187.58447.43835-.51141,1.09588-4.52963,1.60729-8.91315.43835-4.45658,1.82647-13.95419,2.9954-21.187,3.43375-20.16418,3.3607-19.57971.94976-20.74864-12.56608-5.84469-25.13216-9.05927-29.15038-7.37892ZM217.78771,395.54873c-5.26022.80364-7.15974,1.75341-7.5981,3.79905-3.3607,15.85372-6.79445,54.06337-4.96799,55.23231.36529.21918,3.21458-.51141,6.42916-1.53423,9.71679-3.14152,24.98604-3.06846,39.81694.21918,2.63011.58447,2.77623-.29223,1.97258-8.4748-.36529-3.79905-.73059-15.34231-.80364-25.57051l-.14612-18.55689-5.33328-1.60729c-10.22821-3.14152-22.20982-4.52963-29.36956-3.50681ZM221.07535,455.82208c-7.37892,1.09588-15.7076,4.16434-16.5843,6.20998-1.68035,3.72599,2.04564,54.20949,4.16434,56.4743.80364.80364,1.46117.65753,4.09128-.8767,4.52963-2.63011,12.63914-5.33328,19.79888-6.72139,6.3561-1.16894,22.50205-1.60729,28.49286-.73059,2.04564.29223,3.50681.21918,3.79905-.29223.29223-.36529-.80364-5.77163-2.41093-11.90855-2.92234-11.25103-5.1141-22.0637-6.72139-33.24167-.43835-3.28764-1.242-6.3561-1.82647-6.86751-2.70317-2.26482-22.79429-3.50681-32.80331-2.04564ZM422.20569,508.86263c-3.50681,4.09128-20.31029,32.21885-20.31029,33.97225,0,.58447,2.19176,1.89952,5.33328,3.06846,2.84929,1.09588,8.4748,3.87211,12.49302,6.06386,5.91775,3.3607,7.30586,3.87211,8.03645,3.06846.51141-.58447,2.33788-4.31046,4.01822-8.32868,1.75341-4.01822,5.33328-11.54326,7.89033-16.65736,2.63011-5.1141,4.60269-9.78985,4.38352-10.30126-.43835-1.09588-18.48383-12.12773-19.87194-12.12773-.51141,0-1.38811.58447-1.97258,1.242ZM242.77375,514.26897c-2.9954.36529-8.18256,1.31505-11.68938,2.1187-6.64833,1.60729-18.77606,6.94057-20.52947,9.05927-.8767,1.09588-.80364,2.48399.58447,10.5935,2.70317,15.92678,11.4702,49.02233,13.44278,50.99491.8767.94976,1.75341.58447,6.50222-2.63011,12.41996-8.4748,33.97225-14.61172,51.21408-14.68478,3.57987,0,5.04104-.29223,5.33328-1.02282.21918-.58447-1.242-4.74881-3.21458-9.3515-6.20998-14.02725-10.44738-24.62075-13.95419-34.92201-2.92234-8.4748-3.65293-9.86291-5.18716-10.30126-2.48399-.73059-15.99984-.58447-22.50205.14612ZM394.29731,556.35073c-6.57527,13.15055-12.27385,26.52027-11.98161,28.12756.14612,1.09588,2.41093,2.26482,9.71679,4.89493,5.26022,1.97258,12.05467,4.60269,15.19619,5.91775,6.79445,2.92234,6.94057,2.77623,8.91315-4.74881.73059-2.84929,3.28764-10.81267,5.62551-17.8263,2.41093-6.94057,4.16434-13.15055,3.94516-13.73502s-1.97258-1.68035-3.87211-2.55705c-1.97258-.80364-7.37892-3.28764-12.05467-5.40634-4.67575-2.19176-9.05927-3.94516-9.64374-3.94516-.73059,0-2.84929,3.3607-5.84469,9.27844ZM273.67755,575.19985c-7.5981,1.02282-16.87654,3.3607-23.3057,5.77163-9.71679,3.65293-21.77147,10.5935-22.9404,13.22361-.51141,1.09588.51141,4.89493,4.09128,15.34231,5.26022,15.19619,15.34231,40.98588,17.24183,43.83516,1.60729,2.41093,2.70317,2.33788,6.86751-.73059,6.72139-4.82187,20.96782-11.25103,33.60696-15.26925,6.28304-1.97258,24.25546-5.55245,27.83533-5.55245,1.16894,0,2.48399-.51141,2.9954-1.09588.80364-1.02282-.58447-3.87211-10.22821-21.187-1.97258-3.50681-13.51584-25.13216-16.14595-30.31932l-2.48399-4.74881-5.4794-.14612c-2.9954-.07306-8.40174.36529-12.05467.8767ZM379.39335,590.32298c-.8767,1.09588-10.52044,29.88097-11.90855,35.50648-.58447,2.33788-.65753,4.09128-.21918,4.45658.73059.73059,15.48842,5.26022,28.63897,8.76703,8.03645,2.1187,10.37432,2.26482,10.37432.51141,0-2.63011,3.28764-22.50205,4.82187-29.51568,1.02282-4.60269,1.68035-8.76703,1.46117-9.27844-.14612-.51141-2.70317-1.60729-5.69857-2.48399-2.92234-.8767-10.00903-3.21458-15.78066-5.18716-5.77163-2.04564-10.5935-3.65293-10.73962-3.65293-.07306,0-.51141.43835-.94976.8767ZM256.58186,672.07555c-6.72144-15.19617-6.86755-14.68475,4.5296-19.50665,15.70758-6.64832,27.83533-10.44739,42.00873-13.07745,7.96338-1.46118,19.0683-2.70319,20.67554-2.19177,1.38812.43835,23.45184,38.86719,29.22345,50.92188.94977,1.97253,1.89954,3.50677,2.19177,3.50677s.65753-2.11871.80365-4.74878c.21918-3.06848.73059-5.18719,1.46118-5.91779.94977-.94977,1.02283-1.53418.3653-2.48395-.58447-.94977-.3653-3.94519.87671-11.76245,2.11865-13.73505,5.55243-29.80792,6.57526-30.83075.51141-.51141,4.16437.07306,12.27386,1.89954,6.35608,1.46118,14.83087,3.2146,18.84912,3.87213,4.01819.65747,7.67114,1.46112,8.1095,1.82642.80365.65753.80365,39.45166,0,40.76672-.29224.3653-2.33789.51141-4.67578.3653-9.64374-.73059-20.09113-1.9726-28.56592-3.28766-4.96796-.80365-9.20538-1.242-9.42456-1.02283-1.89948,1.89954,29.15039,8.40179,40.03613,8.40179,1.53424,0,3.06848.43829,3.43378.87665.29224.51141,1.242,5.84473,2.19171,11.90857.79315,5.41992,1.76398,11.36591,2.26678,13.9671-15.15344-4.36713-30.14307-9.34424-45.58344-12.6308-5.41919-1.1535-10.8941-2.18079-16.42828-2.56616-5.24994-.3656-10.52588-.20312-15.76013.31226-10.56378,1.04016-20.91699,3.42615-31.27527,5.65723-8.94373,1.92639-17.95673,3.70776-27.0802,4.29608-1.21613-2.82672-2.97821-6.85254-4.95081-11.30054-3.79901-8.40173-9.27844-20.67554-12.12769-27.25085Z"/>
      <path class="cls-1" d="M202.44538,723.94719c-.07306-.87671-11.90851-15.12317-18.703-22.50208-17.24182-18.62994-38.94025-33.75305-59.98108-41.93561-2.55707-.94977-4.60272-1.9726-4.60272-2.26483,0-.87671,9.86292-1.53424,17.53406-1.09589,29.44263,1.82648,52.74835,17.60712,74.73895,50.7027,3.2146,4.8949,5.99084,8.84009,6.13696,8.76703.43835-.43835-7.23285-22.06372-11.47021-32.29193-11.10492-27.03168-26.00885-56.4743-42.44708-84.0174l-1.75336-2.8493,2.9223,1.75342c19.94501,12.05469,38.79413,33.75311,51.14105,58.73914,6.5022,13.22363,10.52045,24.62073,15.41534,43.9082.43835,1.53424.73059-.65753,1.09589-7.30585.87671-14.68475,5.18719-36.5293,6.5022-32.87634.94977,2.55701,5.04108,23.89014,5.84473,30.31927.3653,3.36072.73059,11.68939.73059,18.48383,0,11.39716.07306,12.27386,1.31506,11.90857,3.36066-1.02283,16.51123-4.09131,22.06366-5.18713,3.43378-.73059,6.28308-1.31506,6.4292-1.46118.0072-.0072-.02338-.09875-.07318-.23328,17.68207-1.38037,34.8205-6.97375,52.39801-9.33264,5.19495-.6972,10.44299-1.08661,15.68634-1.00177,5.43958.08801,10.76331.82977,16.09674,1.8631,10.97266,2.12585,21.73053,5.19421,32.43207,8.38763,6.26721,1.87024,12.52698,3.77643,18.81909,5.56274l.01849.08746,6.35608,2.33789c9.20538,3.43378,20.74866,9.05927,37.55212,18.19159,17.46539,9.4978,29.82556,14.99353,44.70178,19.37836-2.18359.32349-4.37982.66284-6.59869,1.01086-32.23328,5.05573-64.58624,9.9585-97.24005,11.10938-16.11469.56799-32.27844.21442-48.31976-1.48639-16.63068-1.76337-32.78821-5.77698-49.17676-8.93829-30.06067-5.79858-60.22083-8.26733-90.74957-5.0376-21.27539,2.25079-42.21521,6.55652-63.20081,10.59906.2254-.13721.44086-.26825.66925-.40735,13.15057-8.03644,43.03156-23.5979,48.94928-25.5705.65753-.21918-1.53424-1.75342-5.40631-3.87213-18.55688-10.08209-36.01788-14.61169-59.90808-15.4884l-12.34692-.43835,5.77167-2.92236c12.12775-6.1369,22.72119-8.69397,35.36035-8.69397,13.29669,0,24.69379,3.2146,38.20966,10.66656,3.87213,2.19177,7.08667,3.72601,7.08667,3.43378Z"/>
      <path class="cls-4" d="M743.29829,796.71355c-.43835.14612-5.99084-.43835-12.34692-1.242-15.41534-1.9726-31.56134-2.63013-41.27814-1.53424-7.81726.87671-18.62994,3.28766-30.97681,7.01367-16.29205,4.8949-34.41064,6.72137-54.28253,5.47937-15.26929-.94977-24.18243-2.11871-50.92188-6.57526-34.99506-5.84473-38.57495-6.21002-64.65686-6.21002-24.83997.07306-30.3924.51141-52.60223,4.74884-27.61615,5.18713-38.57489,6.57526-52.96747,6.57526-17.24182,0-27.47003-1.53424-59.54279-8.76703-37.91742-8.62091-51.87158-10.66656-75.61566-11.47021-24.8399-.73059-39.88995,1.09589-84.74799,10.30127-8.84009,1.75342-19.50659,3.79907-23.74402,4.38354-12.49304,1.82648-30.3924,2.70312-39.30554,1.9726-8.18256-.73059-14.75781-2.04565-14.75781-2.92236,0-.29224,2.19171-1.31506,4.96796-2.26483,2.70319-.87671,8.91315-3.5799,13.80811-5.99078,4.37787-2.10632,8.36133-4.21436,15.72015-8.52484,26.41052-4.29132,52.47565-10.60315,79.01947-14.07904,30.77472-4.02997,61.2915-2.7655,91.77399,2.86072,15.79303,2.91498,31.37463,6.88086,47.30029,9.04608,15.16534,2.06189,30.45636,2.92993,45.75787,2.83356,32.22986-.20294,64.27222-4.47052,96.08228-9.31866,17.0097-2.59235,34.09344-6.65088,51.36304-5.19916,10.2774,2.5752,16.85193,4.80145,29.08777,9.44995,27.25085,10.30127,39.7439,12.71222,63.56097,12.12775,13.36975-.29224,16.58435-.65753,29.95404-3.14154,14.31952-2.63013,15.63458-2.77625,30.31934-2.77625,16.29205,0,21.04089.58447,35.43341,4.38354,7.67114,2.11871,24.76691,8.47479,23.59796,8.84009Z"/>
      <path class="cls-3" d="M536.68853,648.69681c-33.16861,3.65293-61.00394,29.15038-68.01756,62.31899-1.38811,6.28304-1.82647,24.10934-.65753,25.93581.80364,1.38811,12.78526.65753,27.03168-1.68035,18.04548-2.92234,27.1778-3.57987,42.30093-3.14152,13.80808.36529,15.7076.65753,46.83057,5.77163,7.30586,1.242,12.78526,1.60729,23.52487,1.60729,7.67115.07306,14.24643-.21918,14.61172-.51141.29223-.36529.65753-5.26022.80364-10.95879.29223-12.7122-1.16894-21.04088-5.69857-31.63438-11.39714-26.81251-35.50648-44.71187-64.29157-47.78033-7.81727-.80364-8.32868-.80364-16.43819.07306Z"/>
      <path class="cls-5" d="M521.71152,744.33053c-6.50222.65753-18.55689,2.92234-24.10934,4.60269-3.06846.94976-2.26482,1.02282,12.05467,1.38811,22.9404.65753,30.39238,1.97258,58.81218,10.30126,14.53866,4.2374,20.52947,5.4794,31.78049,6.42916,11.10491.94976,23.52487,0,36.5293-2.70317,4.82187-1.02282,11.61632-2.48399,15.12313-3.21458,16.51125-3.50681,27.1778-3.57987,50.62962-.29223,30.83073,4.31046,52.52914,2.55705,73.05861-5.91775,6.94057-2.84929,9.71679-4.60269,5.84469-3.65293-6.20998,1.46117-18.84912,2.55705-29.73485,2.55705-13.88114,0-23.01346-1.09588-40.7667-4.82187-18.77606-4.01822-23.08652-4.67575-32.87637-5.18716-11.17797-.51141-20.67559.51141-35.79872,3.79905-28.20062,6.28304-42.22788,6.42916-71.23214.80364-21.69841-4.2374-36.09095-5.40634-49.31456-4.09128ZM221.44064,802.85047c-14.97701.8767-31.26908,4.01822-43.83516,8.40174-5.91775,2.1187-8.40174,3.65293-4.74881,2.92234,1.242-.21918,5.4794-.73059,9.49762-1.09588,39.08636-3.79905,67.72533.73059,118.20883,18.62995,32.14579,11.4702,46.83057,14.39255,72.10885,14.4656,21.91758,0,33.09555-1.82647,62.68429-10.22821,36.38319-10.30126,44.1274-11.61632,71.01297-11.61632,23.23264,0,29.2965.73059,62.8304,7.30586,33.24167,6.50222,51.3602,8.32868,68.96733,6.94057,15.05007-1.242,34.48366-5.18716,36.60236-7.45198.51141-.58447.36529-.65753-.58447-.36529-2.77623,1.02282-25.4244,2.04564-33.75308,1.60729-20.45641-1.09588-32.58414-3.21458-65.67969-11.32408-39.59777-9.71679-51.50632-11.68938-74.6659-12.20079-26.59333-.65753-40.47447,1.38811-69.69791,10.15515-28.49286,8.54786-46.2461,11.03185-66.84863,9.42456-20.52947-1.68035-32.2919-4.2374-64.43769-14.31949-30.10015-9.49762-52.82137-12.78526-77.6613-11.25103Z"/>
    </g>
  </g>
</svg>