<?xml version="1.0" encoding="UTF-8"?>
<svg id="Layer_2" data-name="Layer 2" xmlns="http://www.w3.org/2000/svg" viewBox="0 0 918.79181 1123.70879">
  <defs>
    <style>
      .cls-1 {
        fill: #fe7f7c;
      }

      .cls-2 {
        fill: #fe6995;
      }

      .cls-3 {
        fill: #feae8c;
      }

      .cls-4 {
        fill: #fe9dbe;
      }

      .cls-5 {
        fill: #fecfa2;
      }

      .cls-6 {
        fill: #fe9dbd;
      }

      .cls-7 {
        fill: #c491f3;
      }
    </style>
  </defs>
  <g id="Layer_1-2" data-name="Layer 1">
    <g>
      <path class="cls-7" d="M199.23823.5848c-6.6.6-26.5,4.5-26.5,5.2,0,.3,4.2,2.1,9.3,4,8.5,3.1,34.3,14.8,48.1,21.8l5.9,3-5.4.7c-6.3.8-17.2,3.3-21.1,4.8-3,1.1-3.8,2.8-1.4,2.8,4.8,0,44.3,14.3,55.9,20.2l6.2,3.2-10,1.6c-10.9,1.9-17.2,3.5-19.5,4.9-1.2.8-1,1.2,1,1.9,14.8,5.6,37,16.8,48,24.1l8.5,5.6-12.5.6c-12.6.7-19,1.6-19,2.8,0,.3,3.1,2.3,6.8,4.5,11.9,6.9,26.5,17.8,36,27,8.9,8.6,11.3,11.8,7.2,9.6-3.5-1.9-17.3-5-22.3-5h-4.8l9.1,10.2c23.4,26.3,39.7,60.1,50,103.5,1.1,4.6.3,4.1-1.7-1-5.1-13-20.4-39.2-31.7-54.5-9.6-12.9-32-35.7-43.5-44.1-25.4-18.7-52.1-30.2-82.1-35.3-14.7-2.6-45.6-3-60.5-1-51,7.1-98.8,34.1-125.9,71-2.1,2.9-3.6,5.5-3.3,5.8.2.3,6-1.8,12.7-4.6,21.2-8.9,45.1-16,65.7-19.4l3.3-.5-5,6.3c-4.5,5.8-9.4,14.5-8.5,15.4.2.2,3.8-1.3,8.2-3.3,17.2-8,33.9-13.9,45.2-15.9,2.6-.5,3.1-.3,2.4.7-.6.6-2.9,3.6-5.2,6.6-4.6,5.9-8.1,12.2-8.1,14.4,0,1,3.6,0,13.3-3.5,13.5-5.1,25.3-8.1,36.5-9.3l6.3-.7-5,4.7c-5,4.7-14.9,18.1-14,19,.3.2,6.6-1.1,14.1-3,17.7-4.4,33.2-6.7,44.1-6.3l8.7.3-5.5,4.3c-5.2,4.1-14.3,14.7-13.4,15.7.3.2,4.7,0,9.9-.5,13.9-1.4,30.1-1.2,41.9.5,9.5,1.4,12.2,2,11,2.7-.2.2-3.4,1.8-7,3.6-3.7,1.8-7.4,4.1-8.4,5.2-1.6,1.7-1.4,1.8,3.7,2.5,24.4,3.2,45.7,12.9,71.7,32.6,19.9,15,20.2,15.5,5.8,8.3-17.8-9-40.7-16.3-62.1-20-12.2-2.1-42.4-2.9-55.9-1.5-48.1,4.9-93,26.5-125,60-30.6,32.3-48.9,72.2-53.8,117.6-1.2,11.6-.7,40.2.8,44.3q.9,2.2,2.6-1.3c6.2-13,26.3-45.7,41.6-67.9l7.6-10.9.6,13.4c.3,7.4,1.1,15.4,1.9,17.7l1.4,4.4,9.4-18.9c5.1-10.3,11.4-22.4,13.9-26.8,4.9-8.6,16.3-26.5,16.8-26.5.2,0,.3,6,.2,13.2-.2,13.2.8,24.8,2.1,24.8.4-.1,3.5-4.3,7-9.4,9.4-14.2,22-30.7,33.8-44.4,10-11.6,13.2-14.4,12-10.5-2.5,8.2-5.9,34.3-4.4,34.3.3,0,5.5-4.9,11.6-10.9,11.5-11.3,27.4-24.5,39.8-33.1,10.6-7.4,10.7-7.4,6.7,2.6-2,4.8-3.8,10.5-4.1,12.8l-.5,4,4.4-3.3c18.3-13.8,34.8-21.3,58-26.5,10-2.2,33.8-5,34.7-4.1.2.2-1.4.9-3.5,1.5-13.9,4.6-34.7,15.9-49.6,27.2-10.1,7.6-27.2,24.7-34.9,34.9-33.5,44-45.7,100.3-34.2,156.9,6,29.2,19.2,58.5,35.3,78.4,3.1,3.8,6.2,7.6,6.8,8.4.7.9,1.5,1.3,1.8,1.1.2-.3-.4-7-1.5-15-3.4-26.2-5.3-76.7-2.7-72.5,5.6,8.6,7.4,11.1,12.4,16.2,4.2,4.3,5.8,5.5,6.1,4.3.2-1-.4-6.8-1.4-13-1-7.2-1.8-20.7-2.1-36.4l-.4-25,3.1,5.3c1.7,2.9,6,8.3,9.6,12l6.4,6.7-.7-6.5c-1.6-14-.4-64.1,1.5-63.9.4,0,2.2,3.1,4,6.8,3.1,6.3,11.4,17.1,13.1,17.1.4,0,.8-6.2.8-13.8.1-7.5.6-18.2,1.2-23.7,1.2-11,5-28.5,6.1-28.5.4,0,1,1.9,1.3,4.2.7,4.9,6.7,17.2,8.2,16.8.6-.2,1.6-3.2,2.3-6.7,3.1-15.6,11.3-35.4,20.9-50.9,4.7-7.6,15.3-21.8,15.8-21.2.1.2-.6,6.8-1.6,14.7-3.1,25.7-5.3,54.1-4.2,55.2.8.8,4.8-.2,12.9-2.9,6.6-2.2,14.4-4.3,17.4-4.7s6-1.1,6.6-1.6c.8-.7,1-6.7.6-20.7-.2-10.8-.1-26.8.3-35.6l.7-15.8,2.9.6c5.9,1.2,20.6,8.2,29.4,14,11,7.4,25.1,20.7,31.6,30l4.9,6.8,1.1-2.8c.6-1.6,1.1-7.3,1.1-12.6v-9.7l4.1,4.7c2.2,2.6,6,7.8,8.5,11.7,4.6,7.2,15.9,29.4,18.1,35.5.9,2.8,1.4,3.2,2.1,2,2-3,5-14.7,5.8-22l.7-7.5,4.1,7c8.3,14,16,30.4,21.9,47l3.3,8.9,1.9-3.9c2.9-5.8,4.4-10.7,5.7-19.3l1.2-7.7,4.1,7.5c5.6,10.1,12.6,26.9,17.5,41.7,2.3,6.8,4.5,12.3,4.9,12.3.5,0,1.3-.8,1.8-1.8,1.6-3,5.1-17.8,5.1-21.6,0-2,.4-3.6.8-3.6.5,0,4.4,7.2,8.7,16.1,5.3,10.9,8.5,16.3,9.9,16.9,1.2.4,7.2,2.8,13.4,5.3,9.5,3.9,11.4,4.3,11.9,3.1.3-.9.3-9.5,0-19.2-1.4-41.4-14.6-76.3-40-105.2-18.6-21.3-48.2-40.4-78.1-50.4-25-8.4-42.4-11.1-72.2-11.1h-23.1l7.4-3.2c10.5-4.7,27.3-10.1,38.3-12.5,11.4-2.4,31-2.8,44.8-.8,5.1.7,9.5,1.1,9.7.8,1-.9-7.3-11.3-11.1-14.1l-3.9-2.7h4.1c12.3,0,42.8,7.8,61.6,15.8,6.4,2.7,11.9,4.8,12.1,4.5,1.5-1.5-4.9-18-9.5-24.6-2.3-3.2-1.9-3.3,5-.7,12.3,4.7,30.6,15.1,44.3,25.2,1.6,1.2,3.1,1.9,3.5,1.6.8-.9-1.4-11.2-3.7-17.2-1-2.8-1.7-5.2-1.5-5.4,1.6-1.5,22.6,12.3,35.4,23.2,5.7,4.9,10.5,8.6,10.8,8.3.8-.8-1.6-12.6-3.7-18.2-1-2.7-1.9-5.3-1.9-5.6,0-1.3,16.1,7.8,29.5,16.6,7.7,5.1,18.7,13.1,24.5,17.8s10.6,8.2,10.8,7.8c.6-1.5-5-18.5-8.9-27.3-19.9-44.4-56.1-73.6-105.4-85.1-41.3-9.7-84-4.2-126,16.3-23.9,11.6-45.9,27.5-66,47.5-11.7,11.8-11.7,11.2.7-6.2,22-30.8,44.3-51.3,69.1-63.4,3.7-1.8,6.7-3.6,6.7-4,0-.9-6.3-2.5-15-3.9l-7.4-1.3,8-3.8c4.5-2.1,15.7-6.3,25-9.4s17.1-5.8,17.2-6c.6-.5-12.6-7-17.3-8.5l-4-1.4,6-1.8c5.1-1.6,18.5-4.4,47.5-10,5.1-1,5.3-1.1,3.5-2.5-2.9-2.2-16.4-8.8-20.8-10.3-2.1-.6-3.6-1.4-3.4-1.6,1-1,36.1-7.4,49.8-9.1,8.2-1,14.9-2.1,14.9-2.4,0-.9-16.1-9.1-22.4-11.5l-4.9-1.8,3.3-2.9c2-1.8,3.8-2.6,4.8-2.2,7.4,2.8,10.1,2.9,20.4.6,14.4-3.3,38.8-8,41.6-8.1,4,0,2-2.1-6.3-6.6-17.1-9.3-38.2-15.1-59.1-16.1-55.4-2.6-103.3,24.6-139.5,79.4-14,21.2-24.1,42.7-34.6,73.8-3.5,10.4-6.1,17.2-5.8,15,3-21.5,2.9-54.9-.1-75.4-6.1-41.8-23.3-79.4-48.2-105.3C292.63823,14.9848,245.23823-3.6152,199.23823.5848ZM622.73823,394.0848c0,.3,3.5,3.2,7.8,6.5s12.5,10.7,18.3,16.3c9.6,9.4,10.2,10.1,7.1,9.6-7.2-1.2-19.2-1.8-19.2-1,.1.5,2.1,2.2,4.7,3.8,9.1,5.8,31.3,24.8,31.3,26.7,0,.4-1.5.3-3.2-.2-4.8-1.4-19.8-2.4-19.8-1.3,0,.5.9,1.5,1.9,2.1,7.1,4.4,30.1,27.7,30.1,30.5,0,.3-2.1,0-4.7-.8-5.4-1.6-16.5-3.5-17.1-3-.2.3,2,3.3,5,6.8,7.5,8.9,12,15.3,16.3,23l3.6,6.7-5.8-2.9c-3.2-1.6-7-3.2-8.5-3.6l-2.7-.6,3.4,6.4c8.1,15.3,11.5,28.6,12.1,48.3.5,16.5.3,16.6-4.5,1-13.5-44.4-48-80.7-89.6-94.4-41.7-13.6-86-9.4-120.6,11.5-7.9,4.8-22,16-22.6,18-.3.8,1.4.8,5.9-.2,11-2.4,36.6-5.4,45.6-5.4l8.7.1-3.5,3.2c-4.4,4.1-9,9.6-9,10.7,0,.5,3,0,6.8-1,8-2.2,26.2-5.6,35.1-6.5l6.4-.6-7.2,6.9c-9.4,9.1-9.4,10.3.2,8.6,9-1.7,32.1-2.9,37.1-2l3.8.7-4.5,2.9c-5.3,3.3-12.7,9.8-12.7,11.1,0,.5,6,.9,13.3.9,13.4,0,27.9,1.8,35.2,4.3,3.8,1.3,3.9,1.4,1.5,2.1-3.8,1.1-13,5.8-13,6.7,0,.4,2.9,1.2,6.5,1.8,20.8,3.6,40.5,14.4,58.5,31.9,7.7,7.5,8.1,8.1,4,5.7-18.9-11-38.2-18-56.2-20.5-11.2-1.6-33.5-1.3-44,.5-22.3,3.9-44.7,15.3-60.6,30.9-16.7,16.2-25.9,32.8-31.8,57-2.6,10.9-4.4,30.6-2.7,30.6.5,0,2.5-2.1,4.3-4.8,6.6-9.3,17.5-21.9,29.4-34,6.6-6.7,12.3-12.2,12.7-12.2.3,0,0,2.6-.7,5.7-.8,3.2-1.4,8.4-1.4,11.6v5.8l7.9-9.3c8.1-9.6,30.4-31.8,32-31.8.5,0,.2,1.9-.6,4.2-.9,2.4-1.8,7.4-2,11.3l-.5,7,6.3-6.1c13.5-12.9,33.2-28.4,34.6-27.1.1.2-.6,2.1-1.6,4.3-1.8,3.7-4.5,14.3-3.8,15,.2.2,3.7-2.1,7.8-5,8.6-6.3,18.7-11.5,27.8-14.5,3.5-1.2,6.6-2.1,6.9-2.1.2,0-1.5,2.1-3.7,4.6-5.7,6.5-5.5,7.9,1.2,5.4,12.5-4.6,26.5-6.6,37-5.2l5.7.7-7.5,9c-11.1,13.4-23.8,31.3-23.2,32.9.7,1.8,16.2,7.8,20.7,8,3.4.1,3.5,0,9.1-10.5,6-11.3,17.7-29.9,18.8-29.9.8,0,8.4,11.4,11,16.7,2.8,5.6,7.1,20.7,7.1,24.9,0,1.9.4,3.4.9,3.4,1.1,0,7.1-11.3,7.1-13.4,0-.9.4-1.6.8-1.6,2.6,0,5.2,24.8,4.4,41l-.4,9.5,3.7-3.5c2.1-1.9,5.5-6.1,7.6-9.3l3.8-5.8.3,9.3c.3,9.6-.6,30.2-1.7,39.8l-.7,5.5,5.9-6c3.2-3.3,6.6-7.1,7.6-8.5,1.7-2.4,1.8-2.2,1.2,10-.6,13.6-2.6,28.6-5,38.1-.9,3.4-1.4,6.3-1.2,6.5.9.9,8.9-5.9,12.4-10.5,2.1-2.8,4.1-5,4.5-5,.3-.1.5,1.1.3,2.6-.2,1.6-.6,8-1,14.3-.8,14.2-2.9,31.3-5.6,44.8-1.1,5.7-1.9,10.5-1.7,10.8,1.1,1,14.7-13,21.3-21.7,12.5-16.9,21.4-36.3,25.7-56.2,2.5-11.9,3-37.6,1-48.7-8.2-44-37.8-78.4-81.5-95.1-11.1-4.2-10.6-4.5,5.2-2.9,19.3,2,36.3,7.7,46.6,15.5l4.5,3.5v-2.9c0-1.6-.7-4.7-1.5-7-.8-2.2-1-4.1-.6-4.1,2.2,0,14.9,11,24.4,21.1,10.3,10.9,10.6,11.2,11.3,8.5.3-1.5.2-6.4-.4-10.9s-.9-8.3-.8-8.5c1-1,19.2,20.2,24.6,28.6,3.6,5.6,6.8,10.1,7.1,10.2,1.3,0,2.1-3.7,2.6-13.3.3-5.3,1-9.7,1.4-9.7,1.7,0,11.2,14.8,16.2,25.2,2.9,5.9,5.5,10.7,5.9,10.7,1.1.1,2.8-6.3,3.6-13.1l.8-6.3,2.8,4.4c4.4,6.9,11.2,21,13.2,27.3,1,3.2,2.1,5.8,2.5,5.8,1.1,0,2.9-8.4,2.9-13.4,0-2.5.3-4.6.8-4.6,1.8.1,16.5,21.8,24.9,36.9,4.9,8.8,5.2,9.2,5.9,6.6,1.3-5.1-.4-31.5-2.5-40.1-10.6-43-42.9-77.4-86.3-91.9-34.3-11.5-72.6-10.8-111.1,2-5.6,1.9-10.3,3.2-10.5,3-.5-.5,15.4-9.8,24.6-14.4,10.9-5.5,22.1-9,34.4-10.8q12.1-1.9,3.3-8l-5-3.5,18,.6c9.9.3,19.5.9,21.4,1.2,3.2.6,3.3.6,2-1.7-.6-1.3-3.5-4.8-6.3-7.8l-5.1-5.4,6,.7c7.2.9,28.6,5.3,32.2,6.7,1.4.5,2.8.8,3,.5.8-.7-3.6-8.4-6.8-12.1-2-2.3-2.6-3.5-1.7-3.5,2.8,0,22.4,5.9,29.7,8.9,4.1,1.7,7.8,3.1,8.3,3.1,1.2,0-1.8-6.8-4.8-10.7-2.2-2.9-2.3-3.3-.7-3.3,3.3,0,20.2,4.9,31,9,5.9,2.2,10.8,4,11,4,1,0-1.3-5-4.9-10.7-10.4-16.5-31.9-30.4-56.5-36.5-12.6-3.2-37.1-3.1-48.8,0-10.1,2.8-27.9,11.6-37,18.4-15,11.1-36.7,34.9-49.7,54.5-3.4,5.1-6.3,9.3-6.5,9.3s1.1-2.8,2.8-6.2c6-11.8,11.8-27.8,15.6-42.6,3.7-14.5,3.8-14.9,3.8-34.2,0-21.1-.8-26.2-6.3-41.6-11.9-33.6-43.5-56.1-82.5-59-5.4-.4-9.7-.5-9.7-.2Z"/>
      <path class="cls-6" d="M375.23823,396.4848c-17.6,5.2-28.2,8.8-29.6,10.3-1.5,1.4-1.8,5.4-2.4,28.1-.5,21.3-.4,26.8.7,28.3,1.2,1.6,2.2,1.4,16-3.2,8.2-2.7,17.4-5.5,20.5-6.2,3.2-.7,6.4-1.8,7.1-2.4,1.2-1.1,1-5.5-.8-27.1-1.2-14.3-2.5-26.6-2.9-27.4-1.1-2-2.7-2.1-8.6-.4ZM628.03823,663.08481c-8.6,13.9-14.4,24.9-14.1,26.5.2.9,2.1,2.2,4.3,3,8.6,3.1,23.7,7.2,24.9,6.7.7-.3,3.1-5.1,5.4-10.7,2.2-5.6,5.5-13.3,7.2-17.1s2.9-7.3,2.8-7.8c-.3-.7-22.8-8.8-24.7-8.8-.3,0-2.9,3.7-5.8,8.2Z"/>
      <path class="cls-5" d="M374.73823,536.5848c-12.4,4.2-23.2,7.9-24,8.3-1.2.6-1.4,2.4-1.3,7.6.3,8.7,7,57.1,8.4,60.3.9,2.1,1.4,2.3,5,1.7,9-1.4,52.8-17.3,53.7-19.4.3-.8-1.1-8.3-3.1-16.6s-5.3-22.3-7.3-31.1c-3.7-16.5-4.5-18.6-7.3-18.4-.9.1-11.7,3.5-24.1,7.6ZM587.83823,746.58481c-1.2,2.4-12.9,39-13.7,43-.5,2.4-.2,3.3,1.2,4.1,4,2,21.3,5.3,31.1,5.9,11.7.7,11.3.9,12.7-9.2.4-2.8,2.3-12.1,4.2-20.9,2-8.7,3.2-16.2,2.7-16.6-.4-.4-5.6-1.5-11.5-2.4s-13.3-2.6-16.4-3.6c-7-2.5-9.1-2.5-10.3-.3Z"/>
      <path class="cls-2" d="M458.73823,770.28481c-15.8,8-40.8,16.9-53.9,19.1-2.4.4-4.5,1.4-5.1,2.5-.7,1.4,1.8,11.6,10.1,40.7,6.1,21.3,11.8,39.9,12.6,41.2,1.4,2.1,2,2.3,6.8,1.7,14.5-1.7,41-10.4,59.5-19.6,10.7-5.3,14-7.7,14-9.9,0-1-6-17.5-13.3-36.7-7.4-19.2-13.9-36.6-14.6-38.7-1-3-3.7-5.9-5.3-5.6-.2,0-5,2.4-10.8,5.3Z"/>
      <path class="cls-3" d="M401.73823,609.7848c-8,3.1-19.4,7.2-25.5,8.9-15.8,4.7-16.1,4.9-15.7,10.2.3,4.3,7.1,39.9,11.2,58,1.1,5.2,2.7,10.1,3.4,10.8,1.1,1.2,2.9.9,11-1.3,19.2-5.2,53.3-18.9,54.2-21.7.3-1-.8-6-2.5-11.1-4-12.2-11.4-37.1-14.2-47.7-2.2-8.4-4.2-12.1-6.3-11.9-.6.1-7.6,2.7-15.6,5.8ZM572.03823,800.68481c-1.3.8-6.5,21.2-10.3,40.6-2,10.2-2.1,11.1-.5,12.2,5,3.7,45.1,7.2,48.6,4.2,1.3-1,2.1-5.5,3.5-20.8,1-10.7,1.9-22,1.9-25v-5.5l-10.5-.7c-10.3-.7-21.9-2.7-27.3-4.7-3.3-1.3-3.8-1.3-5.4-.3Z"/>
      <path class="cls-1" d="M497.23823,860.58481c-15.7,9.2-38.6,17.7-57.9,21.6-8,1.6-12.1,2.9-12.7,4-.7,1.1.2,6.3,2.6,15.9,4.2,16.5,6.9,29.4,9.1,42.8,1.7,10.4,3,46,1.7,46-.5,0-2.7-3.9-5-8.8-13.4-28.3-38.2-53.9-63.3-65.4-8.1-3.8-14-5.9-14-5.1,0,.3,4.2,4.9,9.3,10.2,17.5,18.3,30.7,38.7,39.6,61.3,5.1,13,4.9,13.2-3.8,4.9-11.4-11.1-23.2-17.5-37.9-20.6-7.3-1.6-27.2-2-27.2-.7,0,.5,1.9,1.5,4.2,2.2,6.4,1.9,21.4,9.6,29.5,15.2,6.9,4.8,23.3,20.7,23.3,22.7,0,.5-2-.1-4.4-1.5-9.3-5.2-15.4-6.7-27.1-6.6-6.9,0-12.7.5-15.5,1.5l-4.5,1.5,4.5,1.1c17.2,4.5,27.5,8.9,35,15.2,3.2,2.6,3.3,2.8,1.3,2.9-4.9,0-41.9,7.3-59.3,11.6-56.7,14.1-108.1,38.1-139.5,65l-8,6.9,11,.7c28.6,2,52.7,4.3,82.5,7.9,54,6.5,73.7,8.7,90.3,10,19,1.4,63.7.7,87.2-1.5,83.6-7.7,108.5-9,154.5-8.3,35.1.6,46.9,1.4,91,5.8,18.3,1.9,28.6,2.3,55,2.3,35.6,0,41.7-.5,86.5-7.9,25.5-4.2,45.2-6.5,56.3-6.5,4.5,0,8.2-.4,8.2-.9,0-1.5-12.8-12.8-24.5-21.6-40.8-30.6-86-51.3-141.7-65-19.6-4.8-39.2-8.6-55.2-10.6l-9.9-1.3,4.7-4.3c5.6-5,17.5-11.2,26.9-13.8,3.7-1.1,6.7-2.3,6.7-2.7,0-1.3-7.4-2.3-16.1-2.2-9.7.1-16.3,1.9-25.8,7.1l-6.3,3.4,2.7-4.8c9.3-15.9,25.8-32,43-41.9l5-2.9-4.3-.3c-5.1-.4-18.4,2.8-25.8,6.2-12.1,5.6-23.7,15-31.1,25.3-2.5,3.5-4.7,6.2-4.9,6.1-.7-.7,3.8-20.4,6.8-29.7,3.9-12.3,11.8-29,19.6-41.4,3.3-5.3,5.7-9.7,5.3-9.7-2.1,0-15.5,10.6-22.5,17.7-13.7,14.1-24,31.9-29.3,50.7-1.5,5.4-3,9.1-3.4,8.4-.8-1.5-4.4-23.9-6.2-38.8l-1.2-10.5-3.5.1c-1.9,0-8,.6-13.5,1.3-11,1.4-26.8.9-37.3-1.3-6.1-1.2-6.4-1.2-7.7.8-.8,1.3-1.6,7.1-2,14.9-.4,7.1-1.1,12.5-1.5,12-.4-.4-5.7-13.6-11.8-29.3-22.4-58.2-26.4-68.5-27.4-69.8-1.6-1.9-3.8-1.3-10.3,2.5Z"/>
      <path class="cls-4" d="M365.23823,465.3848c-10.4,3.5-19.6,6.9-20.4,7.6-1.1,1-1.3,4.1-.7,16.3,1.1,24.6,2.8,45,3.9,46.4.6.8,2,1.2,3.1.9,5-1,47.2-14.9,48-15.7.6-.6-.1-6.8-1.7-16.2-1.5-8.4-3.6-21.8-4.7-29.7s-2.3-14.8-2.6-15.2c-1.1-1.8-6.2-.6-24.9,5.6ZM428.23823,689.58481c-12.6,5.7-38,14.6-45.3,15.8-6.1,1-6.3,2.9-1.7,21.5,6.3,25.8,13.7,52.4,14.8,53.9,2.1,2.5,16.8-.8,37.6-8.5,12.5-4.7,32.3-14,33.8-16,1.4-1.9,2.2,1-11.7-38.9-6.1-17.6-11.7-32.3-12.3-32.7-1.8-1.2-2.4-1-15.2,4.9ZM610.13823,696.68481c-2.6,1.6-18.5,38.7-17.7,40.9.5,1.3,9.1,4.1,20.8,6.7,8.8,1.9,14.2,2.3,15.4,1.1.5-.6,2.3-5.7,4-11.5s4.4-14.4,6-19.2c2.2-6.5,2.6-8.9,1.8-9.6-.7-.5-5.4-1.9-10.6-3.2-5.2-1.2-11.4-3.1-13.8-4.1-5.1-2.2-4.5-2.1-5.9-1.1ZM558.53823,862.58481c-2.2,2.5-8.7,54.6-7.2,57.1,1.7,2.7,12.6,4.4,28.9,4.6,17.1.1,27.9-.9,29.9-3,1.2-1.1,1.3-6.1.9-28.1-.3-14.8-.9-27.3-1.4-27.9-.6-.7-3-.8-7.1-.3-9.3,1.2-31.6-.9-40.9-3.7-.9-.2-2.3.4-3.1,1.3Z"/>
    </g>
  </g>
</svg>